<?xml version="1.0" encoding="UTF-8"?>
<svg width="1200pt" height="1200pt" version="1.1" viewBox="0 0 1200 1200" transform="scale(-1,1)" xmlns="http://www.w3.org/2000/svg">
 <path d="m364.39 1005.4 5.1953 3.8047c-6.4023-1.4883-3.1172-1.2539-5.1953-3.8047zm679.61-9.4258c0.99219-5.3164 2.8125-10.652 6.3789-14.031l5.3164 1.2266c-1.8438 5.5977-5.9062 11.172-11.691 12.805zm-4.8906-7.8438 2.6211 4.2031c-3.1172 2.3867 0.16406 0.26172-3.2344 0.28516-0.09375 0-0.51953 0.046875-0.58984 0.046875-0.09375 0-0.54297 0.09375-0.63672 0.09375l4.582-26.645c0.85156 10.723-0.54297 13.016-2.7383 22.016zm17.789-8.1016c4.6758-22.348 4.7227-19.512 10.891-22.156-0.44922 5.457-4.4414 13.465-6.9922 18.613-1.8203 3.6367-0.44922 2.3398-3.8984 3.543zm5.7148-24.543c1.2539-8.6445-1.8438-3.2617 4.0391-4.9141zm-62.434-125.95c0.63672 16.18 12.852 30.852-1.6055 40.699-4.6523-5.5742-6.6602-21.402-8.5273-29.34-3.0469-13.109-0.58984-12.023 4.8672-24.758 3.707 5.5977 2.2695 8.8125 5.2695 13.395zm-19.652 10.254c6.8281-0.70703 4.9844-6.3789 11.293 17.219 2.9531 11.078 5.1016 11.977 2.5039 19.18l-5.1484 0.35547c-3.4023-4.6055-1.2539-3.1875-3.0234-8.0547-1.3477-3.7812-1.3242-2.6445-2.0781-3.8516-4.9375-7.8906-13.773-34.746-21.566-49.133 1.9844-5.6914 5.1016-13.301 9.5664-18.566l12.234 35.836c-4.7969 4.6992-4.3477 0.94531-3.7812 7.0156zm5.6445-11.859c-6.9922-23.457-15.262-32.48-11.078-42.141 1.7969-4.1328 3.5898-9.4492 6.2109-12.473 2.8359 3.4492 19.605 37.961 4.8672 54.613zm14.008 1.6055c0.68359-19.914-7.6523-9.3555 2.0781-33.875 2.9062-7.3477 7.7969-22.984 11.691-28.371 1.7227 4.2773 3.1172 7.8672 4.7461 12.402 0.78125 2.1719 0.89844 3.0469 2.0312 5.6445l3.2617 5.6211c-4.7461-25.254-16.699-18.402 3.8516-62.551 5.293 7.4883 10.348 29.93 12.684 40.629 2.5742 11.836-2.1719 22.82-7.9609 33.234-2.1484 3.875-1.2266 2.0547-3.4492 4.1797l-3.9453-14.859c-1.6758 3.2344-2.0312-3.7578-0.92188 4.4648 0.070312 0.49609 3.6602 8.7891 3.7812 13.582 0.09375 4.8672-18.07 42.426-20.031 44.859-3.3789-4.6055-2.6914-6.7812-4.0625-12.969l-3.7578-12zm-4.7461-26.434c-2.1953-3.1875-12.402-32.621-11.008-39.117l16.086-33.52c2.1953 12.285 13.82 25.723 9 37.844-3.6133 9.1641-9.6836 27.684-14.078 34.797zm-23.738-17.645c-4.3711-5.3633-8.2188-19.156-11.551-27.285-3.4961-8.5039-3.6602-6.9688 0.023438-15.66 1.2031-2.8359 1.6523-4.3477 2.7656-6.4961l4.6992-5.8125c1.8203 8.9531 6.3555 19.18 9.6602 28.254 4.3945 12.164-0.68359 15.426-5.5977 27zm8.3398-85.699c0.51953-1.1797 1.5586-3.5664 2.1016-4.3242 2.0312-2.9062 0.49609-0.80469 2.7148-2.7148l12.805 33.355c-3.3789 6.2344-5.125 11.008-8.1484 17.551-3 6.4023-4.4648 12.188-8.2188 16.914l-12.781-36.047 11.527-24.73zm34.156 56.102c-3.6602-4.2266-12.613-27.637-12.234-31.086 0.21094-1.8672 12.211-27.758 13.891-29.715 3.4258 4.582 11.387 24.922 9.9453 29.883-2.6914 9.3086-8.3164 20.668-11.598 30.922zm-70.867-37.629c2.3867-6.0938 6.6602-18.094 11.738-22.301 1.5352 7.1094 8.293 19.938 9.1172 25.652 0.73047 5.0547-6.7578 20.148-9.4727 23.008l-11.387-26.363zm57.379 2.1719c-4.2539-4.2031-4.4883-8.4336-7.9375-16.891-1.1328-2.7656-6-13.746-6.1875-15.496-0.37891-3.8984 11.48-24.637 13.441-31.203 3.8047 3.4961 2.3867 1.9375 4.3945 6.8984 14.387 35.504 9.8984 18.117-3.707 56.691zm-37.18-9.4961c-8.293-22.277-9.8047-17.363 0.54297-35.008 3.3555-5.7383 4.4648-10.156 7.8438-12.758 17.93 27.164 4.8906 31.938-4.3008 55.277zm-38.93-30.355c2.1484-4.7734 4.1562-7.5352 6.9219-12.094 2.8125-4.6758 3.8516-8.457 8.0547-11.41l12.496 32.93s-6.0469 17.363-11.883 22.371c-2.6445-9.2852-11.27-23.883-15.59-31.797zm109.68-30.875c14.008 28.062 5.2695 36.852-5.6211 67.348-3.2617-4.3242-9.5664-23.363-11.363-28.629l16.984-38.715zm-79.629 34.652c-3.2109-4.1562-1.9844-2.6914-3.8516-7.7734l-8.8594-22.867c-0.56641-5.1016 10.348-24.684 12.828-29.316 4.2539 4.4414 12.543 25.086 14.812 32.645l-12.543 24.426c-1.1562 1.8203-1.6523 2.1016-2.3867 2.8828zm29.812-3.332c-1.7227-1.8203-0.96875-0.14062-2.8594-3.9922-3.6836-7.5117-8.9531-17.457-5.5039-25.133 2.5977-5.8359 9.0469-20.457 13.086-24.285 3.0234 3.9688 4.3008 9.0234 6.332 13.746 5.5273 13.016 3.8281 9.8047-4.3008 27.141-2.6914 5.7383-3.3086 8.7148-6.7578 12.52zm31.395 1.4883c-5.3164-8.4102-14.527-27.52-10.227-37.203 3.3555-7.6055 12.188-31.301 16.324-35.125 2.9531 7.4883 12.332 30.875 9.6367 37.348-2.8594 6.9453-11.148 29.836-15.73 34.984zm30.164-12c-1.9609-2.125-1.6992 1.0391-4.3477-7.9844-4.7734-16.254-6.6133-15.379-2.9297-24.922 2.5039-6.543 8.9766-25.723 13.227-30.875 3.0234 4.4414 4.7734 10.773 6.4258 15.805 2.7891 8.4102-8.5039 32.691-12.379 47.977zm-72.543-78.211c1.5586 1.5586 0.47266-0.51953 3.0234 3.707 0.046874 0.070312 1.4414 3 1.5117 3.1641 1.3242 2.8359 2.1719 5.0078 3.2852 7.7461 1.3945 3.4727 5.8828 12.234 5.5039 15l-12.543 26.504c-1.3242 2.0781-1.3945 1.6992-2.8828 2.8594l-13.488-31.914 15.59-27.07zm28.254 52.773c-0.28516-0.30859-0.66016-0.73047-0.85156-0.99219-0.16406-0.21094-0.58984-0.66016-0.78125-0.96875-0.23438-0.35547-1.0156-1.6758-1.2539-2.1016-9.2109-17.316-7.8672-20.34-3.8281-28.324 5.0312-9.9219 9.6367-22.676 14.883-32.078 3.0703 3.9219 4.9375 10.062 7.2031 15.637 3.4258 8.4336 2.0781 9.8281-1.1094 17.008-4.3945 9.875-8.4805 22.844-14.27 31.82zm32.977-8.8594c-2.4102-3.7578-11.195-29.766-10.676-33.684l13.797-32.293c4.0859 5.4336 13.797 27.141 11.293 33.566-3.0938 7.9844-9.4727 27.449-14.41 32.41zm-12.566-38.883c-1.3945-1.3477-0.26172 1.2266-2.7383-3.5664-3.7578-7.2539-8.1016-17.434-5.3398-24.66 2.5508-6.6133 7.7734-23.148 11.219-27.707 3.4023 3.8984 4.418 8.6211 6.6836 13.277 3.1641 6.4492 4.4883 6.9219 1.6758 14.953-2.9531 8.4336-7.7227 20.148-11.504 27.707zm-610.39-141c5.8828 2.4805 4.7461 3.1406 3.4258 8.1484-2.2695-2.457-0.56641 1.8203-2.9766-4.2539-0.80469-2.0547-0.28516-2.0547-0.44922-3.8984zm58.629-50.812c-7.1562-1.1562-10.465 0.21094-9.6367-7.3477zm1.8672-4.7227c-4.8906-3.543-5.5039-1.3477-7.3242-6.9453 3.8281 1.8672 5.7656 3.0469 7.3242 6.9453zm-24.52-12.094c-1.7734 1.2773 4.2266 3.0469-4.3477 1.3242-3.8516-0.78125-1.4883-1.4414-1.7227-1.582-1.1328-0.68359-7.1094 2.7891-11.551-12.426 5.9062 2.5977 15.117 7.0625 17.621 12.684zm-81.285-57.543c6.3555 2.7383 6.5898 1.8672 4.7227 8.3164-4.6289-2.5508-4.3242-1.0859-4.7227-8.3164zm-10.109-7.5352-7.2266 1.9375-1.9141-8.3633zm-116.5-73.699c8.9062 0.49609 7.3711-1.0625 8.5977 7.1328-0.070312-0.023437-3.0469-0.94531-3.4258-0.99219-2.5508-0.47266-3.543 2.7891-5.1719-6.1406zm-7.2031-6.3789c4.418 4.4883 0.75781 2.6211-0.49609 3.4023zm17.41 3.9922-9.8047-0.44922c-1.7461-3.2344-0.96875-2.1953-2.0078-6.7305-5.3633 1.4648-3.6602 1.0391-3.5664-3.4492 5.457 1.1562 13.277 6.4961 15.379 10.629zm-27.402-17.34c1.1328-0.47266-1.3477-3.1406 4.8438 0.16406-6.6602 5.1953-4.2031 0.23438-4.8438-0.16406zm-7.0859-6.2617c4.0391 1.4414 2.7383 3.4961 4.5352 8.3164-7.1328-1.0156-6.707-3.4961-4.5352-8.3164zm0 0c-5.4805-2.2188-8.5508-2.1953-10.961-7.6523 5.293 1.9141 8.1484 2.125 10.961 7.6523zm-84.922 111.57-6.9688-1.7227c1.7969-15.355 5.6445 6.6133 4.9609-51.805-0.16406-13.723-0.63672-26.125 3.9453-38.668 1.5117-4.0859 0.73047-7.2031 2.7383-10.652l15.309 14.812c0.40234 14.504-3.9219 10.984 4.3945 21.262 0.78125-6.0234-2.125-12.234-2.6445-18.828 5.7891 2.9062 10.723 9.0469 16.395 11.031-0.85156 6.707-4.3242 11.812 1.0859 14.738l0.96875-12.566c6.1875 2.5977 9.5898 7.1797 14.883 10.582-2.668 6.4258-4.9375 3.0938-4.8906 8.0781 0.046876 5.9531-0.09375 0.89844 1.6055 3.2109 0.28516-0.23438 0.68359-0.94531 0.78125-0.70703l2.0078-2.5508c1.8438-2.1953 0.85156-1.6992 3.4961-3.2852 5.1016 2.4336 7.1797 9.2344 15.922 15.875 11.977 9.0469 25.891 26.789 38.457 31.938 0.35547 0.14062 0.80469 0.23438 1.1797 0.37891 3.1172 1.1328 13.938 8.0547 14.27 10.18l31.465 24.332c6.1406 6.8984 15.355 9.0938 21.781 17.504 1.3477 1.7969 1.0391 1.9141 2.6445 3.7812 3.4727 4.1094 2.457 1.2031 6.0469 3.2109 8.668 4.8203 16.441 17.812 22.559 21.07 9.0469 4.8203 13.016 12.117 18.332 20.883l2.8359-3.8516c0.23438-0.26172 0.70703-0.75781 1.0625-1.1328 3.4727 6.1172 4.8672 4.1797 9.875 8.8828 2.4102 2.2422 6.9453 8.8359 8.8828 9.9688 5.9766 3.4727 5.0547-1.1094 11.031 7.7461l8.0547 10.914c0.875-4.7227-0.875-5.8594-1.582-10.867 5.6211 2.3633 5.5273 2.3867 7.9844 9.0703 1.5352 4.1328 1.4648 8.3867 5.2188 10.699 7.0859-3.8516 0.30859-0.89844 4.4414-7.7969 11.27 8.9531 4.1094 8.4336 11.242 17.715 3.1641-1.1094 2.3164-2.8594 6.4258-4.1797 1.2773 2.5039 1.9375 3.332 3.0469 6.6367 0.56641 1.7227 0.28516 1.7969 1.0156 3.6367 1.7969 4.5352 0.47266 1.2031 1.6992 3.0469 4.6523 0.51953 2.3398-1.1797 7.1797-2.1484 2.7148 3.2344 7.2266 10.773 10.465 12.496 0.66016-1.5117 0.23438-0.94531 0.58984-2.7148l0.99219-3.6602c9.0469 15.828 7.1094 8.0781 10.535 9.9219 5.5742 3.0234-1.4883 0.63672 6.5195 3.3086 10.984 3.6836 9.6836 14.48 15.898 21.543 0.21094-0.33203 0.42578-1.2773 0.49609-1.0391l3.2109-5.5742c3.8984 4.8438 11.031 14.316 16.914 16.133l2.9062 3.543c13.867 10.559 13.605 14.527 20.41 28.395 2.6211-3.4023 1.3711-3.543 0.875-9 5.0078 2.125 0.51953-0.82812 4.8438 2.6914 11.883 9.6367 15.758 20.219 23.836 30.613l-4.7734-12.426c6.707 3.4258 10.086 8.5742 15.332 13.254 6.2617 5.6445 8.9297 8.9297 17.195 12.684 3.5195 1.582 7.3242 5.5273 11.574 8.2188 14.195-7.6992-5.5508-13.914-18.637-27.875l-77.34-67.062c-17.93-13.676-32.812-27.875-52.277-43.441l-40.82-31.418c-4.7734-4.0859-6.7305-8.4102-13.227-11.715l-8.0547 2.8594c-4.8672-4.3477-8.1484-4.5586-9.7812-11.883-10.254-0.75781-14.93-7.1328-17.715-15.234-15.141-3.4727-30.426-22.227-42.309-33-5.3633-4.8203-7.6289-9.3555-12.852-13.867-9.3789-8.0781-18.332-16.086-28.512-23.293l-29.125-22.676c-10.441-7.3945-20.977-12.355-30.566-19.629-5.6445-4.2773-8.9062-7.3711-14.195-10.82-11.102-7.3008-17.859-15.164-28.512-23.363l-13.348-13.324c-5.5508-5.8594-24.309-21.023-26.34-26.977 8.9531-2.5742 12.496-5.7891 20.766-9.1172 9.4023-3.7812 18.047 0.80469 27.094 1.9844 5.0781-8.1719 7.418-4.1562 9.1172 4.4414l-18.566-1.1328c-1.8203 2.3164-2.9531 3.8047-3.9922 7.4648 8.125-3.4023 6.6367-8.0078 21.992-3.5664 5.5742 1.6055 4.2773 0.42578 5.4336 5.4102l3.3789-1.582 3.7305 8.2422c-5.8125 1.1328-10.465 1.9375-13.016 7.1328 6.7305-1.582 5.5742-4.0625 17.078-4.418-6.0469 11.219-2.8828 7.8438-1.6289 9.7812 3.8516-1.5117 0.73047 0.26172 2.4102-5.0781 9.5898 1.1797 2.7891 2.457 10.844 5.293l-3.6367 7.3008c4.1328 2.0781 10.605 4.5586 14.316 4.7227 0.09375 7.9609-1.9375 4.6523 1.9609 8.4102l7.0859-6.5898c2.3867 4.6289 1.3008 8.1016 6.2617 10.535 5.5508-7.9375-0.85156-0.80469-3.4258-11.219 2.5977 0.44922 2.8594 0.16406 5.7383 1.1562 7.2773 2.5039 1.7969 0.56641 4.4883 2.3867l-0.070313 7.8672-6.8281 4.3945c0.070312 0.046875 0.14062 6.7812 6.3789-0.92188 4.1094 4.6758 0.89844 3.2109 6.2852 4.7227 3.1172-8.2695 0.1875 0.51953-1.0625-3.6836-1.2031-4.0391-0.28516-2.1484 4.3945-2.8359 4.3242 10.203 0.28516 6.0469-0.92188 14.008 2.8828 3.8984-0.37891 1.9375 5.1484 3.2109-2.3164-2.6211-2.4336-1.5586-2.4336-5.7656 8.6211-0.28516 5.0312 3.4492 11.598 6.707-3.0234-5.457-2.1719-1.0391-4.6289-8.0312 13.652 0.78125 5.6914 7.7734 14.125 11.148l-3.8047-7.1562 5.5273-3.4961c-6.0234-2.7148-3.1875-0.16406-7.5352-5.293-2.0781 2.0547-1.2266 3.875-7.5352 2.3164-4.9609-1.2266-3.543-2.0781-4.9609-6.2109l7.1094-2.6211c-8.7656-5.293-8.6211 0.070312-17.789-0.94531l-1.0391-11.387c-5.8125-2.3633-9.4961-1.8438-12.828-5.4336 1.9375-2.6211-2.0312-1.6055 2.8594-2.9297 2.457-0.63672 6.4961 2.293 9.2852 4.2266l36.875 24.379c7.3477 7.3242 14.691 11.621 23.078 17.715 6.5898 4.7969 16.867 13.203 24.285 16.18-1.2539 4.2773-3.707 5.5039-1.3711 11.102 3.2344 7.7734 4.3711 12.613 13.512 11.738-0.30859-0.21094-2.7656-2.0547-2.8125-2.1016-2.457-1.6523-1.6992-0.80469-4.3477-2.9062 5.0781-7.0625 8.9297-2.9062 11.906 4.9141 3.875 10.227-2.668 13.324 8.457 13.086-1.6523-2.9297-2.1719-2.3867-1.4883-4.3945 6.2852 1.4648 4.6289 2.2188 7.9141 6.4023l-0.47266-11.574c14.148 3.5664 34.961 25.984 48.094 32.574l-3.0703 3.0234c-1.7227 1.9609-0.30859-0.30859-2.1016 2.7383-1.1562 1.9844-1.8203 4.2773-2.7148 6-3.4258-2.0312-2.2188 0.44922-4.6289-5.3633-1.3008-3.1641-0.70703-3.1172-2.5273-6.7305-12.141-1.5117-4.3008 3.9219-12.141-6.5664l4.3945-4.418c-7.8906-3.7578-4.3477 2.0547-6.9688-5.6445-0.35547 0.37891-0.82812 0.42578-1.0625 1.1094-1.8906 5.9062-9.1406-0.56641-7.8906 9.2617l8.9297 1.8203c2.7656 5.1719 3.2344 6.0234 7.2031 10.086 6.8281-3.3555 0.046875-3.4023 4.8672-2.9062 4.6055 7.0156 1.1328 12.426 10.82 15.707l1.6289-7.9844c12.922 0.875 7.6758 2.8594 16.395 11.953 7.7227 8.0547 6.1875 2.293 13.371 0.82812l6.1875 7.7461c-5.3164 2.7148-5.5977-0.16406-10.156 4.6992 1.6992 0.73047 23.363-0.046875 27.52-0.11719 1.6523 1.7969 4.7734 6.3086 5.0781 6.4258 3.4258 1.1328-3.0469-6.4492 6.9922 1.8906 17.27 14.34 38.645 26.172 56.293 39.613 6.9219 5.293 9.3555 10.254 14.457 13.773 10.488 7.2266 32.715 22.418 36.496 32.527 12.781 0.92187 9.332 4.582 17.363 10.914 4.6289 3.6602 10.891 8.2422 16.254 12 2.5273 1.7734 5.5508 4.1328 8.125 6 3.2344 2.3633 5.457 3.1875 8.5977 5.5039 6.7305 4.9375 25.18 24.969 29.172 25.652 15.07 2.668 33.969 28.773 47.691 37.348 2.9766 1.8672 5.293 3 8.2188 5.7656 6.9453 6.4727 23.93 30.707 31.203 39.402 4.7227 5.6445 10.156 10.441 14.551 15.211 4.6055 5.0078 6 11.457 10.348 17.953l12.543 15.707c4.7969 4.7461 8.9297 8.1016 14.27 13.961l26.738 31.395c9.6133 11.527 14.148 14.645 25.395 31.062l12.234 17.766c5.3164 4.6289 2.4805-1.8906 6.8281 7.3477 1.3477 2.8828 3.332 6.1875 5.125 8.9297 4.0859 6.2109 7.3008 10.395 12 16.039 8.5977 10.301 13.582 24.707 21.023 37.086 7.1094 11.836 15.66 22.18 22.559 34.016 2.5742 4.3945 20.977 32.789 21.141 36.141 0.66016 14.387-2.7148 6.1875 5.2422 20.668 10.227 18.637 22.203 41.27 22.109 64.301l-10.961 0.68359c2.6211 7.7969 9.543 4.2539 18.73 5.0078 6.9688 0.54297 15.898 3.1172 20.195-2.668-5.8125-2.8594-10.938 0.21094-17.008-4.6992-0.85156-8.9531 2.3633-9.5664 0.16406-19.039 4.3242 7.7734 5.8125 7.3477 3.8516 14.953 6.2344 2.2188 3.0703-0.40234 4.7227 5.0312 2.6914-3.8281 3.7305 4.8906 1.1328-6.6133l5.5742 2.668 15.875-13.938-0.47266 8.7148c-6.0469 1.9375-11.41 4.7227-14.953 7.8203 2.4336 2.125-3.6367 2.3164 4.1562 1.7734 0.94531-0.070313 3.3086-1.1094 4.6289-1.7461 3.5898-1.6992 5.457-3.3789 9.543-3.8984-4.1328 4.6055-7.1562 4.8203-10.746 10.488 7.3711-3.2109 31.535-21.66 36.234-29.574 2.8359-4.7969 0.47266-3.7812 2.8359-8.2188 2.1953-4.2266 2.9297-3.0703 4.7734-6.1172 3.2344-5.3398 2.8594-10.371 6.0469-15.875 6.4727-11.172 4.8672-24.805 10.133-33.898 6.4258-11.102 5.7891-22.891 9.9219-35.527 3.5664-11.008 7.8672-20.363 10.82-32.93 1.6992-7.2539 4.3242-9.6836 6.6133-17.172 4.3008-13.914 7.6289-18.234 9.1641-34.109l2.457-31.441c0.47266-11.219-0.33203-2.0781 3.4961-9.2852 1.3711-6.9922-3.3555-41.715-4.2031-51.234-9.9219 4.2539 1.8203 16.605-8.7148 21.188 0.1875-8.125 4.0156-31.039 6.1875-37.746-6.3086 1.3945-5.8828 4.6758-9.9453 13.82-2.1953 4.9844-4.5117 13.82-5.9766 19.062-4.6289 16.773-10.109 21.945-15.262 35.219l-8.2695-2.0781c-2.4805 5.1719-4.2773 4.418-6.4023 12.094-1.4414 5.2695-1.1094 11.363-2.125 17.008-2.5742 14.293-4.2773 21.473 2.457 32.48 11.148-2.8594 2.0547-8.4805 10.984-12.805l7.0391 20.195c6.0234-9.4258-8.1484-21.684-5.7148-36.023 1.7227-10.109 2.0547-10.676 5.5039-19.418 1.3242-3.332 2.293-5.8594 3.6836-9.2109 0.023438-0.023437 1.7969-3.8984 1.9375-4.0859 2.3164-3.2344 1.0625-1.582 3.6602-3.2617-0.23437 8.0547 1.3477 22.629 9.8516 23.008-6.2852-7.2539-8.5039-18.164-4.2266-27.828l1.582 1.8906c0.47266 0.66016 1.0625 1.8672 1.9609 2.8359 2.5273 2.6914 1.582 1.8438 5.4102 3.3555-4.582-8.9766-6.1641-9.7812-4.3242-22.371l4.3711 8.9297 1.3477-11.574c3.8984 30.402-3.7812 47.316-9.2344 75.73-0.51953 2.6914-0.99219 7.3477-1.6992 9.707-2.293 7.6758-6.0469 8.9062-9.6367 23.148-3.1641 12.566-5.9531 25.227-10.348 35.363-3.0703-6.4258 0.58984-6.3555-1.6055-13.844l4.2539-4.6992c-0.99219-8.8125 0.54297-17.125-3-24.285-1.418 28.797-2.9766 15.449-5.0312 22.699l0.14062 14.836c-0.30859-0.37891-0.75781-1.418-0.875-1.1797-0.09375 0.21094-0.63672-0.89844-0.75781-1.2539l-0.82812-12.402c0.16406-5.3398 1.0156-9.3789-1.3008-13.844-0.14062 0.28516-0.37891 0.40234-0.40234 0.85156-0.023438 0.49609-0.30859 0.73047-0.33203 0.96875l0.96875 20.691c-0.30859 0.1875-0.89844-0.046875-1.0391 0.40234-0.89844 3-3.0703-2.668-4.0391 4.9375-1.7461 13.867 3.6602 30.355-1.4883 45.426-2.4336 7.1328-2.293-0.21094-2.0078 8.3867l-1.582 14.434c-1.1797 3.8984-1.1094 2.6914-2.9297 4.8203 0.33203-24.379 4.2539-37.016 1.0391-62.031l-1.8438-17.812c-0.070313-0.21094-0.30859-0.63672-0.47266-0.96875-1.6758 1.5117-3.0938-0.28516-2.6914 9.3789 0.51953 12.66 3.4961 10.418 2.6211 37.867-2.2695-4.6055-0.63672-3.1641-1.6289-7.8203-1.8438-8.5508 0.61328-3.5664-4.6055-4.7461 3.6133 7.8438 2.9766 7.7461 2.0078 17.363-1.418 14.242-3.1875 53.883-8.8125 62.031-5.1719-8.5273 3.3086-8.7148-1.0156-19.395-2.0781 3.4023-2.0312 8.125-3.3555 11.836-1.6523 4.7461-3.0703 8.1953-4.6758 12.781-2.5039-4.8672 1.0156-8.6914 1.8906-15.707 0.70703-5.4805 0.56641-13.086 0.66016-18.781l-3.3555-37.039c-0.09375-0.28516-0.40234-0.73047-0.58984-1.1094-2.125 2.8359-1.6289 5.1484-0.85156 8.7891 0.68359 3.332 1.0391 7.0156 1.3242 10.512 0.54297 6.4258 0.875 13.109 0.78125 20.172-2.2422-4.3711-0.85156-1.9375-3.4961-4.5586 0.070312 1.2773 0.11719 3.5195 0.56641 4.6758 0.14062 0.30859 0.35547 0.82812 0.51953 1.1094l1.418 1.582c0.11719 0.14062 0.54297 0.33203 0.80469 0.54297-0.11719 0.023438-0.33203-0.070312-0.37891 0.070313l-2.0078 0.94531c-3.0234 1.5586-6.7578 25.914-7.7734 30.992-7.0156 2.3633-0.51953 2.0312-7.3945-1.5352 0.61328 5.3633 1.5352 6.5898 2.5977 10.559l-9.6602 7.0625c-12.094-6.2617-1.7461-18.211-4.2266-30.023-2.5742-12.234-5.2188-21.164-7.6992-33.141-2.5977-12.566-17.598-51.758-17.645-61.324l8.0547-0.75781 10.277 53.387c0.23438-16.227-3.4961-26.293-5.6914-41.055-0.35547-2.457-0.42578-4.6055-1.0391-6.8516-0.78125-3-1.5352-3.5898-2.3164-6.8047 2.6914-3.2617 4.5117-6.3555 7.7461-11.148l5.1719 8.6445c-0.96875-7.3711-3.9453-10.535-1.8672-15.852 2.1484-5.5273 4.6992-8.7383 7.0156-13.723 3.1875-6.8281 8.6211-21.637 13.156-27.164 2.2188 4.7227 2.1016 8.8359 4.1094 12.992 0.11719-9.875-5.0781-13.109-0.58984-22.441 3.332-6.9453 6.4023-14.078 8.7656-21.07 3.8516 4.6289 4.0859 14.551 4.8438 21.66 1.7227 16.559-15.707 38.148-18.637 55.652 11.172-16.086 21.473-45.473 29.055-65.148 6.875-17.812 13.938-34.465 18.496-52.016 1.6055-6.1172 3.332-13.086 5.3867-17.836-2.5508 1.9844-28.797 72.805-30.402 79.465-1.1797-1.6055-1.1797-0.875-2.5273-3.875-2.3164-5.1484-4.2031-24.234-2.3867-28.156 4.1094-8.9766 7.0859-19.086 10.867-28.652 0.16406-0.046875 0.47266-0.11719 0.49609 0.046875l0.94531 0.16406c2.2422 0-1.5352 1.582 1.2539-0.21094-0.80469-10.254 4.9141-23.48 6.9688-33.52-3.6602 3.5898-4.7227 8.8594-6.2852 13.629-4.6992 14.48-8.5508 32.242-16.18 44.812-3.5664-5.293-4.1094-14.738-5.9531-22.18-6.2617-25.227-11.527-18.781-2.1016-45.262 2.668-7.4648 4.8672-14.031 8.2422-21.566 4.0625 6.2344 4.3242 14.434 6.3789 21.496 0.046875 0.16406 1.1094 3.6836 1.1328 3.7305 1.0156 2.3398 1.2539 2.2422 2.0781 3.4258-1.5352-13.254-9.6602-29.715-5.3164-41.738 2.4102-6.6133 9.6602-33.094 12.805-36.828 3.4961 5.2695 7.3477 17.738 8.8359 23.527-1.6289-10.938-9.875-25.723-6.2109-36.969 1.1562-3.543 4.2031-7.8203 2.1016-11.836-0.73047 1.6992-1.4883 3.4258-2.1016 5.2188-0.30859 0.94531-0.96875 3.3789-1.0859 3.7305-0.96875 2.6211-0.49609 1.5352-1.5352 3.2109-2.2422-3.6602-2.9531-7.8672-4.7227-12.496-5.0547-13.227-1.4883-12.309 3.4258-27.992l5.7891-12.543c2.5039 4.582 8.457 22.961 11.93 25.582-1.0859-1.9141-4.3008-14.859-5.9766-19.109-4.2773-10.797-4.4883-10.797-2.8594-22.016-3.1875 4.3242-0.80469 1.5586-4.582 3.3086-3.6602-18.262-20.504-59.387-30.07-77.172-3.0938-5.7148-8.3633-20.41-15.164-17.621 5.8359 11.93 11.434 10.961 25.133 48.543 6.5898 18.07 13.441 35.883 20.242 53.457 0.23438 3.9922-5.9766 17.125-8.1484 21.684-0.49609 1.0391-0.96875 2.2695-1.4883 3.1641l-2.9062 4.2031c-2.3164-2.8125 0.56641 2.293-2.3164-3.1406l-10.418-25.914c1.9141-4.9375 4.8906-10.395 4.2539-16.465l-5.7656 11.504-10.984-23.195c3.6133-8.9766 7.2266-17.242 9.4961-26.738-5.6445 3.9922-7.0859 15.496-10.961 21.922-8.668-6.8516-16.844-43.301-30.922-36.07 3.6836 6.2344 4.0625-0.37891 9.5195 7.3008 4.9141 6.9219 17.598 27.047 18.828 33.496-0.44922 6.1406-3.5898 12.543-5.6914 18.379-0.99219 2.7383-1.7969 5.0078-3 8.0312-0.40234 1.0156-1.3711 3.5195-1.8203 4.3477-2.0312 3.6367-1.0391 1.8672-2.9297 3.8047-5.1484-11.574-10.062-20.574-16.723-31.605-3.0469-5.0547-7.6523-9.9688-12.094-13.039-6.5898-4.6055-14.031-3.4023-8.5273 4.582 4.5352-3.332 0.30859-1.7227 6.5664-2.1016 13.133 12.781 17.789 22.773 26.621 40.348 6.3086 12.566-6.6836 29.363-12.094 41.645-0.68359 1.6055-0.61328 1.8672-1.4883 3.2852-1.3242 2.1719-1.3008 1.7734-2.3398 2.9062l-13.535-28.699c4.6992-9.707 13.723-22.797 14.789-31.512-7.1562 6-9.2617 21-16.629 27.758-2.1953-3.9922-9.707-24.59-13.914-26.691-5.293-2.6445-3.4961 0.42578-3.7578 0.54297-2.0781 2.3398 4.2773 8.5039 7.6289 14.434 12.047 21.496 8.7656 15.707-7.1094 43.773-3.7578-3.0469-5.9531-8.7148-7.9141-13.062-2.4336-5.3633-4.1797-8.7656-6.7578-13.699-3.8516-7.418-8.8594-22.746-15.73-25.348 2.125 7.1797 3.6602 8.9062 6.4492 14.27 4.3477 8.293 20.668 37.301 20.789 42.402 0.09375 2.7891-11.34 24.023-14.883 26.859-3.1172-9.1875-17.434-45.66-26.078-48.234-1.4414 3.6133 5.1719 22.109 8.2422 26.859l-2.457-13.512 18.73 39.426c-3.8047 8.7656-8.9531 17.434-13.773 24.852-7.582-6.0703-12.52-20.078-16.605-28.723-1.7969-3.7812-0.21094-2.5039-3.8281-4.2539-0.96875 1.6758-3.9453-1.4883 1.9609 9.2344l15.211 27.141c-2.7383 8.1484-6.4492 8.6445-9.8984 18.566 7.7461-3.1875 3.8516-8.1719 13.535-12.875l15.992 33.355-3.2109 5.7148 5.6914-1.8672c2.0781 10.062 8.6211 21.023 11.125 30.758 1.6055 6.2344 4.1562 7.2773 6.5664 13.746 2.3633 6.2617 6.9922 15.758 8.5039 21.566 1.5117 5.8828-3.543 19.062-7.7461 22.723l-15.707-38.031c4.1328-3.4023 5.5977-6.9453 6.8281-12.684-4.7461 3.3555-5.9766 8.0078-11.504 10.891-9.4961-30.141-35.078-62.906-51.141-90.66-3.0938-5.3633-3.707-8.9062-6.6133-13.984-4.7227 9.0469 24.543 48.379 29.078 55.914 11.363 18.922 21.355 39.73 31.348 59.668 5.0547 10.086 13.109 23.621 15.496 33.66 0.09375 0.37891 0.14062 1.3477 0.26172 1.6758l2.9531 3.9688c0.49609 0.75781 1.4414 2.9531 2.0078 4.2773 11.363 26.008 28.324 58.109 28.844 88.109 0.1875-0.40234 0.35547-1.4883 0.40234-1.2773l2.4336-7.582c3.0234 18.852 20.363 52.156 13.086 69.496-0.11719 0.28516-0.42578 0.58984-0.51953 0.89844-0.11719 0.33203-0.35547 0.68359-0.44922 1.0625-0.56641 2.1016-0.40234 4.4648-0.44922 6.6367l-1.6992-2.5508c-3.4492-6.0938-4.2031-14.125-8.125-20.031l6.0469 29.457c-7.6758-8.8125-0.23438-13.867-13.867-25.324-0.28516-0.23438-0.70703-0.44922-0.94531-0.68359l-9.8281-19.773c-4.7461-11.293-9.4727-9.4961-10.961-21.566-0.73047-6-8.8359-17.363-12.332-22.605-21.211-31.844-8.668-19.844-24.922-45.637l-42.898-62.27c-2.4336-3.4492-4.7734-6.4023-7.2539-10.039l-21.758-31.652c-18.707-23.48-50.977-55.652-61.82-71.668l-28.133-34.629c-10.062-15.922-9.332-14.551-23.738-29.48-15.828-16.441-37.844-32.812-56.055-49.062l-77.316-63.898c-16.984-16.371-41.078-32.859-60.262-46.488-13.914-9.9219-27.379-20.008-41.242-29.41-7.1797-4.8672-15.285-10.039-21.426-14.738-10.465-8.0078-9.6602-6.3086-15.898-20.078-7.6055-0.23438-23.457-8.1719-28.133-11.242-4.1562-2.6914-3.1406-3.4023-7.2539-6.7578-7.5352-6.1406-26.48-16.914-30.262-22.938-8.1484-4.0156-13.227-10.324-19.984-13.254 0.40234-4.3477-0.78125-2.0781 2.3633-3.9922-5.7891-0.16406-25.746-12.805-28.277-18.852 4.4648 0.73047 9.6367 3.1875 13.441 1.3711-1.2773-0.75781-9.1875-3.3555-10.746-3.707-8.7891-2.0547-6.3086 1.7461-13.301-4.2266-10.512-8.9531-29.836-19.676-41.977-27.023-8.1016-4.9141-13.062-9.8984-20.148-14.434l-14.48-10.535c-2.8125-2.668-1.1094-1.8203-4.7734-4.7227-19.254-15.285-41.812-28.441-63.309-40.488-3.543-24.945 28.465-36.262 45.992-43.746l15.828-6.2109c18.684-6.3555 32.93-12.449 53.551-15.449 11.387-1.6523 21.141-6.9219 33.285-10.582 39.164-11.789 52.016-19.652 94.984-18.262 5.7148 0.16406 9.4961 1.9141 14.645 0.61328 7.1562-1.7969 1.9141-0.56641 4.4883-2.1016-0.35547-0.23438-0.89844-1.0625-1.1094-0.70703l-33.852-3.4961c-4.7969 0.046875-6.5195 1.4883-10.773-0.49609 13.301-7.3477 57.852-9.2617 77.195-13.797 17.055-4.0156 68.008 11.598 77.715 5.9531-7.1797-3.7812-18.262-3.9688-26.387-4.8906l77.977 5.5742c39.117 8.125 74.812 15.922 110.64 31.984 21.355 9.5664 76.156 47.031 94.324 49.395l-9.7812-6.8047c-7.6758-4.2266-21.781-10.488-27.758-16.18-2.0078-1.9375-0.85156-0.89844-2.457-3.2852 5.1719 1.3242 10.723 5.2422 15.164 7.8438 36.023 21.047 38.598 17.457 70.746 43.844l38.148 29.34c5.8125 4.0859 7.4883 7.1562 12.543 11.008l47.055 43.914c13.961 16.086 27.945 33.637 39.758 51.332 6.8281 10.227 13.844 15.684 19.156 26.387l24.234 43.277c22.559 29.102 23.031 41.242 37.512 77.078 3.7305 9.2109 10.797 32.316 11.527 41.715 0.51953 6.4961-0.80469 5.5039-1.7734 8.9297-1.3711 4.8438 0.80469 13.961 1.0625 20.293l3.8047-6.0234 6.4258 30.211c2.668 9.1406 7.4883 22.559 8.8594 30.234 0.63672 3.4961-6.6133 65.953-8.1953 71.715 6.5195 5.0312 2.9297 10.016 2.6211 17.859 2.8594-1.6055 1.8672-0.51953 3.6836-3.0703 0.58984-0.80469 1.8203-3.7578 2.3867-5.1719 1.6758-4.0625 2.5508-6.875 3.875-11.977 9.3555-36.164 0.1875-50.504 0.42578-79.227-1.7461-0.66016-0.21094-0.61328-4.1094 1.7461l-8.3867-56.504c-3.8281-20.668-10.465-50.859-19.891-69.496l-11.789-30.566c-3.2852-9.0234-6.7578-14.457-10.605-22.465-1.7734-3.6602-3.1875-7.2539-4.9375-10.723-4.7227-9.4961-4.0625 0.875-6.7812-8.9297 0.42578 5.668 1.9844 2.3633 2.9766 10.559-4.5117-3.9922-7.7227-11.738-10.629-16.938-9.332-16.629-19.395-36.852-30.188-51.426-4.3945-5.9297-6.9688-10.559-10.914-15.73l-36.094-45.473c-5.4805-6.4258-7.8438-9.4727-12.66-14.031l-28.016-25.301c-6.0703-5.3398-8.7148-7.7227-15.141-13.109l-61.844-48.094c-26.645-17.031-57.707-36.07-90.188-44.219-12.637-3.1641-24.637-13.203-36.426-17.363-7.2031-2.5508-12.898-5.5977-20.172-8.0547-41.789-14.055-87.402-27.543-133.23-30.379-17.031-1.0625-33-4.7461-50.195-3.8516-2.1953 3.8047-0.1875-3.4023 0.26172 0.82812 0.14062 1.2266 1.1562 0.14063-0.30859 2.8125-26.883-7.2031-69.922 2.6211-97.039 9.875l-15.047 5.5039c-4.0156 1.7461-1.9375 1.418-4.6055 3.2109-4.2266 2.8594-17.434 3.4492-23.883 4.3945-11.27 1.6523-35.293 8.9531-45.285 12.758l-85.062 29.574c-14.387 6-25.559 11.031-38.434 18.094-7.7227 4.2266-10.324 6.1875-16.723 11.504-6.8984 5.7383-5.0312 22.652-16.016 23.668-14.293-3.6133-14.645-9.2344-29.172-2.9531-12.141 5.2422-17.645 4.7227-24.402 16.348l-6.8047-0.33203c-3.4258 10.062-8.3633 15.094-11.645 25.723-4.8203 15.496-0.47266 50.41-0.78125 68.293-0.070313 4.9609 0.21094 8.9766 0.40234 13.371 0.35547 8.5508-1.4883 7.0859-0.61328 16.324-11.906 4.1094-13.156 19.82-18.52 34.676l-2.9531 5.2695c-8.9766 10.844-10.844 34.488-14.148 48.449-7.1328 30.164-12.332 64.062-12.684 95.621-0.046874 5.7891 1.8203 2.0547 1.7969 11.34-0.23438 61.203 2.9297 44.125 8.3398 84.805 3.0938 23.148 13.844 63.613 27.449 80.574 7.0859 8.8594 4.7734 2.5508 13.914 17.668 0.44922 0.75781 2.0547 3.6133 2.8594 3.9688l11.316 18.047c3.7578 11.645 14.645 39.758 24.094 47.551 1.2031 0.99219 1.0859 0.51953 2.5742 2.4102 1.4414 1.8438 0.56641 0.89844 1.7227 3.0703 10.156 18.922 19.746 39.543 35.242 55.723 3.9219 4.0859 5.6914 7.1094 8.0781 10.746 5.0078 7.6758 3.5195 2.2695 8.9297 8.3398 2.668 3.0234 5.8359 7.5352 8.2188 10.605 5.1719 6.707 9.8281 15.473 16.676 20.645l-2.457 3.8984c6.0469 3.875 9.543 10.465 14.645 15.59 19.418 19.559 32.172 33.969 55.395 49.746 3.1875 2.1719 5.1484 4.7969 8.5977 7.1094 15.473 10.395 29.551 22.348 46.605 30.402 6.8281 3.2344 4.3711 1.1094 7.9375 1.0625 4.1797 0.92187 36.355 26.859 59.527 34.938 7.9609 2.7656 3.9922-1.2266 20.883 7.418 20.766 10.629 44.219 19.301 66.969 27.188 4.7227 1.6523 15.023 5.5273 20.738 5.5742 2.3164 0 2.1719-0.49609 3.0938-0.89844-4.5117-7.3711-20.031-9.543-27.637-13.395-8.9062-4.5352-19.676-7.9141-29.195-11.621-10.371-4.0391-19.746-7.1797-29.574-11.27-10.699-4.4414-18.66-8.125-29.977-7.7461-4.3711-6.0234-5.5508-4.4414-11.195-9.0938-12-9.9219-29.031-15-39.285-25.109-16.133-15.898-20.574-10.465-32.906-18.898-6.1406-4.2031-15.781-6.3555-22.395-10.559-4.3945-2.7656-8.0078-5.3164-12.566-7.8672-10.676-5.9297-16.559-19.156-25.418-27.898l-9.7305-10.676c-5.3398-5.9297-14.148-11.457-16.629-16.348-3.0938-6.0703-2.9531-8.0547-6.9922-13.371-3.1172-4.0859-5.5039-8.4336-9.1172-12.922l-49.629-66.613c-3.1875-3.5195-2.7891-1.1797-5.9062-5.0781l-11.836-19.512c-1.6289-3.2852-2.2695-4.6992-3.6602-7.2539l-21.875-41.172c-5.3164-11.645-18.613-41.148-25.395-49.652-3.6836-4.6289-7.8906-6.4023-10.488-11.527-3.1406-6.1875 0-3.8984-4.8672-5.1953l4.5586 14.078c-5.2695-2.293-3.3555-1.2773-6.0703-7.2773-1.8203-4.0156-2.3398-4.6289-4.9141-7.4648 5.2422-9.5898-5.4336-45.309-7.5586-56.883-2.5273-13.82-3.0234-5.7656-8.0781-15.449-6.4258-12.234-4.418-48.707-5.1953-65.668-1.3242-28.512-10.961 1.8906-0.85156-50.766 2.5742-13.395 2.7891-23.031 4.5352-36.73 3.0938-23.953 5.4336-26.008 13.156-48.023 2.0547-5.9062 0.875-9.332-0.70703-15.07 6.2344-6.6133 8.8125-15.262 12.117-25.039 1.2031-3.543 3.5664-10.961 4.9609-14.102 3.6133-8.0078-0.23438-1.582 4.2031-5.293 3.332-2.7891 2.8359-0.28516 2.0078-4.8203 5.5039 0.875 10.535 0.99219 11.055-10.227z" fill-rule="evenodd"/>
 <path d="m344.34 474.85c-6.6602-3.2852-17.242-12.309-23.766-17.195-4.6523-3.4727-3.7812-1.8203-6.543-6.5664 5.9062 1.7969 26.812 18.164 30.309 23.766zm480 353.05 14.242 18.828c5.9531 5.6211 10.488 11.008 17.055 17.48 5.9531 5.8828 4.5117 2.1953 8.8125 8.457 2.7656 3.9922 5.3633 7.3945 6.6836 10.699 3.3789 8.3398 6.6367 12.898 16.371 18.852-3.4023-7.7969-8.2695-5.8359-11.598-14.812 7.3242 2.9766 13.254 11.977 19.016 17.504l-3.8281 1.2266c-0.11719 0.046875-0.54297 0.1875-0.78125 0.33203 6.0703 8.3867 22.016 21.52 29.715 32.953-3.2852 2.1016 1.3945 0.26172-2.0078 0.23438-7.1094-0.070312 2.4805-2.9062-1.9844-0.23438 8.293 9.9688 10.746 8.8828 18.992 22.914 4.9141 8.3633-2.5273-0.42578 7.0391 13.156 8.293 11.812 4.8203 13.109 23.906 31.418-1.9609 11.293-1.7461 5.5508 1.0391 17.316-6.3789 4.0859-1.8672 3.0703-10.773 4.8438-12.188 2.4102-0.023437 2.3867-11.598 4.6523-7.6758-8.293-17.668-18.117-26.27-26.645l-74.172-87.59c-3-3.0469-3.5898-2.8125-6.4492-6-2.5039-2.8125-3.6602-4.6758-6.4258-7.7461-4.5586-5.0781-8.0781-8.7891-12.566-14.031-4.582-5.3633-7.0859-8.6445-12.449-14.34-5.7383-6.1172-9.4492-9-14.27-13.914-19.723-20.102-24.66-31.016-52.867-55.441-6-5.1719-8.7148-6.8516-14.953-11.715-29.789-23.34-64.203-69.852-95.621-92.738-20.766-15.141-33.402-22.938-53.008-41.125-3.8516-3.5664-4.3711-6.1875-12.781-13.891-3.6367-3.3086-3.3555-3.7305-8.1484-6.0703-7.8672-3.8281-22.18-17.078-29.883-23.363l-12.449-11.316c-2.1016-2.2422-0.78125-0.75781-2.457-2.8125 9.6602 3.6836 23.93 18.332 29.766 20.148-4.2773-12.852-36.566-28.441-49.301-37.535-8.9297-6.4023-15.234-13.465-23.715-20.219-9-7.1797-16.254-12.566-24.426-19.512-17.363-14.766-13.254-13.418-21.188-22.797-7.5586-8.9531-37.301-31.605-48.73-39.117-6-3.9688-8.2188-3.7812-15.094-6.7578-7.0625-3.0703-8.9766-5.9297-13.488-10.133-4.1094-3.8281-7.9609-6.5898-12.164-9.8516-5.1016-3.9922-8.1484-5.5742-12.496-9.4727-20.242-18.211-30.781-24.234-49.062-38.836-9.0234-7.2031-17.125-13.18-26.34-14.812l-41.574-24c-5.5508-3.5664-9.3789-4.6289-14.363-7.5586l-40.629-25.348c-5.5039-3.4023-11.691-6.9453-16.465-3.7578 28.914 23.836 8.6445 18.117 21.023 32.172 1.9844 2.2695 0.73047 1.0156 2.5039 2.2188 3.1406-7.3711-2.1016-1.4883-3.1172-13.016 17.836 3.9688 3.9453 15.047 14.102 20.598 3.2852-4.5352-1.0625-4.6758-1.0625-12.023l10.746 5.457c0.14062 8.7891-6.8281 15.355 4.3711 18.047-1.6992-6.1172-0.63672-15.59-3.1875-20.836-3.6836-7.6523-17.195-7.8672-22.133-18.637 21.07 10.109 41.691 27 60.117 40.605 14.789 10.891-1.8438 16.086 12.66 22.371l-4.9141-15.141c1.0391 0.09375 1.6992-0.09375 1.9609 0.58984 0.26172 0.63672 0.99219 0.54297 1.3477 0.73047 1.2539 0.73047 2.457 1.3945 3.5195 2.0312 2.7891 1.7227 3.332 2.3633 5.5508 3.8047 15.094 9.8047 31.891 14.859 44.812 27.473 9.8984 9.6602-3.2852 0.78125 28.465 26.41 13.441 10.844 13.559 4.3242 42.852 26.148 18.023 13.418 36.234 23.906 53.457 37.605l24.875 22.227c0.23438 0.21094 0.58984 0.51953 0.82812 0.73047l23.766 18.613c10.535 8.8828 17.859 16.676 30.355 24.52 12.52 7.8672 58.723 59.008 66.309 62.434-1.5352-5.2695-0.35547-1.8672-3.4023-5.9531l41.715 36.66c4.6523 4.8672 41.836 39.73 48.211 43.133-1.6289-6.1172-1.7461-2.4805-3.2617-7.4648 6.7305 2.8828 19.109 17.41 24.211 22.324l46.938 47.195c4.5586 4.6055 8.3164 5.9531 12.898 10.652 25.016 25.652 10.652 6.3555 38.148 32.48 5.3164 5.0312 6.543 7.7734 11.125 12.449l22.914 24.188c14.621 14.789 17.953 15.66 34.844 35.527-2.3867 1.418-5.0547-0.1875-5.5273 0 6.4961 10.961 17.738 21.332 25.867 31.652 10.324 13.109 33.188 34.062 40.914 45.449 9.543 14.078 16.891 19.723 28.441 31.156 4.8906 4.8438 7.5352 12.188 14.031 15.684-8.4102 16.039 9.543 9.7578 19.324 18.852-4.9141 9-5.8359 8.5508-15.781 12.922-4.5352 1.9844-4.3711 1.9609-10.418 3.8516-6.6836 2.0781-5.5039 2.8359-10.277 5.2188-8.5039 4.2539-83.836 7.418-104.53 11.645-6.3555 1.3008-41.93-2.7383-54.094-2.5273-14.598 0.23438-34.773 5.9297-51.898 6.0234-10.844 0.070312-9.4492-1.9609-22.746-0.30859-27.758 3.4492-55.277 6.0234-83.859 4.7461-13.465-0.61328-42.969-8.4336-52.914-6.5898 2.9531 4.1328 3.6602 2.2188 7.7461 5.3398 0.26172 0.1875 0.58984 0.51953 0.82812 0.70703 8.7656 6.8984 43.18 13.699 52.203 12.332 0.046874 0 1.7461-5.6445 25.109-4.9141 10.891 0.35547 23.738 0.11719 32.977-1.3477v3.332c30.52-3.4961 21.211 1.0156 42.332-0.26172 14.715-0.89844 28.605-3.9688 43.227-6.8516 16.156-3.1875 61.395-2.9062 66.379-4.4414 22.844-7.0625 48.922 3.5664 108.29-12.543 5.7148-1.5586 10.938-4.3477 17.125-6.5664 17.504-6.3086 15.402-13.133 25.465-24.566 7.4414-8.457 10.465-1.6289 16.227-9.0938-0.58984-4.0156-5.7891-0.42578-1.9844-12.781-0.30859-0.26172-0.85156-0.96875-0.96875-0.68359l-4.7734-6.0469c-1.7734-8.2188 1.8203-1.6523-0.56641-9.0469-5.9062-18.164-8.9766-19.133-19.82-33.402-9.2617-12.164-21.262-22.109-28.723-35.621-2.5039-4.5352-3.0938-4.0391-6.2344-7.9141-4.0391-4.9609-5.7148-10.797-10.086-16.582-11.316-14.883-24.188-28.348-34.773-43.773-11.457-16.652-48.355-62.031-62.102-71.172-8.3867-5.5742-6.8281-9.8516-14.457-12.637 6.8516 19.652 29.242 34.938 38.527 51.828-7.8438-3.5664-0.11719-2.457-8.293-4.9375z" fill-rule="evenodd"/>
 <path d="m695.17 967.68c4.3477-6.5898 13.016-3.8047 34.277-8.5273 10.652-2.3867 24.66-6.8516 35.27-7.8438 5.6211 3.6602 28.441 24.332 31.371 29.195-19.086 3.7578-38.316 7.2539-58.133 10.512-15.875 2.5977-15.234 1.8203-24.945-6.1875-4.3008-3.5195-5.5508-4.9141-9.3086-7.9141-10.652-8.457-5.5273-4.1562-8.5273-9.2344zm-33.496-107.69 40.676-5.5742c3.7305 5.668 10.961 9.6602 16.039 13.629 5.9062 4.6055 10.324 9.0234 16.277 13.203-4.7734 4.2031-13.984 5.1484-20.34 6.1875-12.898 2.0781-12.875 4.6758-22.133-2.6211-9.9219-7.8203-21.234-16.441-30.52-24.828zm121.77 183.12c-2.9297-4.9609-17.055-14.715-20.836-16.652 6.1875-6.707 64.348-13.844 69.992-13.371 2.6445 4.6055 1.7969 3.8516 6.2852 6.5195-3.7812-6.1875-3.0469-1.6523-5.4102-7.8203 8.5508-1.1797 19.582-1.4883 25.629-4.9375-7.9375-0.37891-23.574 3.7812-27.922 2.5977-4.8203-1.3242-11.195-11.812-17.766-15.117 1.9141 4.4648 2.4102 3.9688 6.4492 7.6055 3.6133 3.2617 5.3398 4.582 7.7461 8.5508-18.852 3-38.574 6.1875-57.758 9.7812-14.148 2.668-16.418-1.7969-23.977-8.668-4.5117-4.1094-16.203-12.496-18.234-15.66l63.379-11.34c13.984-3 8.3633 0.21094 17.574 5.0781l-5.8594-7.3008c13.723-4.0391 44.434-7.6289 48.285-14.195-4.8438 1.6992-45.023 11.551-48.828 11.34-5.2188-0.33203-27.141-22.441-33.355-29.102l50.102-16.348c5.2695-2.0781 3.7812-0.85156 7.0391-4.1797-17.242 4.3711-33.543 9.9219-51.473 14.812-10.961 3-12.613 0.92188-29.527-15.379l-8.1953-7.8672c-0.21094-0.1875-0.61328-0.54297-0.89844-0.85156 12.262-6.8984 32.078-8.2188 44.008-15.684-3.6133-2.2422-2.7891 0.47266-20.738 5.4102-32.363 8.9062-24.73 9.0703-41.031-4.3477-4.2773-3.5195-13.109-10.039-15.922-13.605 5.5039-2.6914 20.574-4.7734 26.574-6.3086 12.992-3.2852 13.254 2.8359 21.684 8.0078-2.5273-4.6289-1.1562-2.1484-5.293-5.7891-4.7969-4.2266-3.6367 0.80469-3.9922-6.8516-7.9609-0.75781-34.938-26.859-35.789-28.086 6.4961-2.1719 18.496-4.0156 23.195-8.0547-16.086-1.5586-19.82 11.293-33.285 0.30859-2.6211-2.125-4.9609-4.2266-7.6992-6.3789l-31.395-25.086c5.4336 8.9062 19.984 20.574 29.031 27.426 2.1484 1.6289 2.7891 2.0547 5.2695 4.0625 1.582 1.2773 1.3945 0.89844 2.668 2.1953 3.3086 3.4492 0.80469-0.51953 3.1172 4.2773-24.496 2.0781-33.355 9.7578-46.82-1.4648l-23.738-18.73c-0.023437-0.023438-3.8516-2.4805-3.875-2.4805-9.4961-2.5977-1.8203-1.7969-5.4102 1.1797 5.3398 2.2188 31.535 21.117 35.41 27.66-14.27 1.1562-18.117 1.4648-18 6.3789 1.3242-3.543 15.52-4.2031 17.789-4.0625 8.5039 0.44922 19.086 11.621 28.723 18.805 2.6445 1.9844 3.4258 2.6211 6.0938 4.8203l6.7578 7.2266c-5.7383 0.26172-9.875 1.1328-15.141 2.1016l-12.969 3.0703c-0.30859 0.09375-0.82812 0.26172-1.2031 0.47266 7.6289 3.1406 22.746-3.5664 33.285-3.543l29.316 23.93c-6.1641 4.8672-42.922 6.6836-52.039 14.125 1.9609 0.99219 42.945-7.8438 49.773-9.2617 8.1953-1.6758 9.7812 0.51953 18.59 9.1406 6.0234 5.8828 12.094 10.914 17.621 15.828-1.3242 0.85156 0.70703 0.11719-3.4023 1.6758-17.621 6.6133-55.891 9.2109-67.652 16.961l-52.961-44.195c-7.0156-5.3398-48.449-41.836-53.906-43.797 9.707 13.844 86.527 74.883 101.53 87.188 3.9688 3.2852 32.125 24.332 33.496 28.723-5.8594-0.070312-15.402 0.75781-21.094 2.9766-0.82812 0.30859-2.1719 0.92188-3.1641 1.5586-2.3398 1.4883-1.2031 0.66016-2.6211 2.2422 2.7656 5.4805 10.512 7.8203 15.164 4.7227l-11.93-2.5508c1.4883-2.1016 2.2695-3.4492 7.1562-4.4883 11.457-2.457 21-2.5977 28.984 4.0156 5.2695 4.3711 21.117 15.309 24.758 20.148-4.8438 1.9844-18.449 4.1328-25.441 5.5742-12.023 2.5039-15.402 6.1172-25.227 0.21094-22.371-13.441-85.324-54.117-107.08-70.301-4.2266-3.1641-5.0781-5.6914-11.27-6.2109 4.0391 8.0781 108.5 75.73 119.1 80.551l-37.867 10.395c-2.0781 0.51953-4.1797 0.94531-6.1875 1.6055-2.1953 0.73047-1.8906 0.56641-3.5664 1.4414-2.5742 1.3008-1.9844 0.99219-3.4727 2.2188 25.324-2.2188 45.211-18.234 62.316-8.1719l49.324 25.535c0.1875-0.023437 0.70703-0.16406 1.0156-0.35547-1.7734-1.9375-0.30859-0.63672-2.7656-2.1484l-49.441-27.449c4.4883-3.8281 34.109-8.9766 39.496-9.8516 10.371-1.6523 19.086 14.172 29.691 17.574z" fill-rule="evenodd"/>
 <path d="m809.95 614.43c-1.7734-4.6758-13.512-9.6367-24.047-19.488-25.062-23.434-43.109-39.234-57.73-78.852-3.7305-10.18-8.3633-23.219-13.699-31.797-15.758-25.324-24.426-23.738-49.582-41.363-9.8281-6.8984-12.758-14.27-19.984-25.582-14.504-22.582-29.293-38.125-38.574-52.371-8.5742-13.156-24.805-49.512-39.52-50.789-17.387-1.5352-8.9062 8.7148-33.402-9.7578-11.102-8.3633-22.699-3.332-29.551-15.945-7.3477-13.488-4.3008-18.496-19.512-26.008-16.18-7.9844-11.504-8.8594-10.844-26.859l-0.73047-4.4414c-0.875 1.3242-0.80469 0.68359-1.7461 3.332-0.75781 2.1719-0.82812 2.3633-1.2031 5.1719-0.23438 1.7227-0.51953 9.2617-0.35547 10.82 0.78125 6.5664 4.1328 9.4258 9.4492 12.684 14.977 9.1406 13.441 6.2617 20.93 24.59 5.7383 14.031 15.969 11.953 28.488 17.055 13.441 5.4805 6.332 15.262 32.41 13.324 11.883-0.875 16.203 3.1406 25.723 19.559 15.141 26.125 17.738 32.055 36.309 54.684 14.715 17.977 29.008 46.109 38.812 52.227 45.07 28.227 44.789 26.766 63.781 72.828 9.5898 23.242 18.805 40.629 33.566 57.449 7.5352 8.5742 36.285 35.715 51.023 39.52z" fill-rule="evenodd"/>
 <path d="m838.87 503.79-13.465-23.715c-7.582-16.324-15.234-38.953-26.715-48.566-7.6992-6.4492-15.211-8.2695-21.234-16.441-25.984-35.172-21.59-0.37891-40.512-34.773-9.0938-16.559-17.715-32.41-27.117-48.211-33.402-56.125-42.332-35.598-87.969-62.691-22.605-13.418-43.699-48.852-60.023-71.789l-4.5117-9.707c-0.11719-0.42578-0.28516-0.89844-0.42578-1.2773-0.11719-0.35547-0.35547-0.94531-0.44922-1.2539-0.11719-0.30859-0.26172-0.875-0.49609-1.2539-0.94531 1.418-2.4102 2.3398-1.0859 7.5586l11.055 17.527c12.945 19.891 33.309 48.875 51.355 61.652 15.473 10.938 35.48 13.605 52.156 23.102 27.945 15.922 33.781 34.18 49.961 63.07 4.6758 8.3633 8.8594 14.738 13.891 23.883 5.0547 9.1875 8.8359 17.691 17.812 19.676 18.637 4.1562 12.023 0.49609 22.488 15.285 5.9297 8.3867 12.117 9.7812 21.234 16.418 6.707 4.8906 11.242 13.652 15.211 22.535 5.7656 12.969 17.812 45.309 28.844 48.969z" fill-rule="evenodd"/>
 <path d="m583.18 865.94c-4.0156-6.4258-8.9531-6.0234-20.812-12.969-8.125-4.7461-12.875-8.668-19.395-13.559-18.141-13.629-27.047-35.434-44.434-56.008-43.773-51.805-20.668-80.148-122.39-128.71-18.449-8.8125-33.164-22.938-44.504-40.277-5.125-7.8672-9.8281-12.59-14.27-20.219l2.0312-0.85156c0.16406-0.046875 0.75781-0.26172 0.96875-0.28516l3.9219 0.33203c-3.6367-2.4805-6.8984-3.9922-13.227-4.1562 1.0859 5.3867 22.914 34.773 27.496 40.254 13.203 15.852 20.055 21.117 38.766 30.332 29.363 14.41 57.758 28.938 77.93 58.582 9.0469 13.348 15.637 28.559 23.574 44.078 7.4883 14.598 20.41 26.645 29.551 39.379 14.387 20.055 8.8359 19.254 30.52 38.48 12.262 10.914 26.316 20.172 44.27 25.605z" fill-rule="evenodd"/>
 <path d="m968.71 512.53c-2.5039-15.117-22.867-40.156-33.426-51.211l-23.195-28.582c-11.645-14.363-22.629-17.504-24.285-44.789-1.6758-27.875-3.2109-34.699-19.773-49.254-5.9766-5.2422-11.883-9.3086-18.684-14.293-16.277-11.953-38.102-35.883-56.48-47.078-24.66-15-29.172-40.062-37.914-65.836-1.6523-4.8438-3.1875-7.5117-4.582-12.637-0.89844-3.2852-1.2539-10.891-2.9297-13.418-5.8828 5.4102 1.2773 17.93 3.3086 24.164 8.1016 24.945 14.715 53.34 35.551 67.984 12.426 8.7148 1.7969-1.3242 20.172 14.316 26.93 22.914 20.953 21.707 57.285 47.906 13.652 9.8516 20.93 23.836 21.332 47.195 0.49609 27.805 10.582 30.707 23.148 46.418 14.316 17.93 13.605 19.535 31.559 37.512 10.605 10.629 19.844 33.496 28.914 41.598z" fill-rule="evenodd"/>
 <path d="m398.03 858.47c-0.21094-7.4414-3.0469-2.3867-12.402-15.496-10.488-14.715-29.812-41.387-37.723-56.457-11.668-22.227-36.828-56.078-54.945-70.629-11.977-9.6367-21.496-16.371-36.188-24.992l-58.324-35.883c-13.652-8.1484-16.203-20.172-22.699-40.133-1.1094-3.4492-2.8828-8.8594-2.8125-12.875 0.11719-6.875 3.2852-7.2031 0.023438-12.047-7.6523 12.922 2.2695 35.148 8.0078 48.07 10.016 22.652 11.125 14.504 32.977 29.715 10.324 7.1797 5.3164 1.6289 18.59 12.852 9.6602 8.1484 26.859 15.141 39.094 23.691 4.6758 3.2617 4.3008 3.7812 9.0469 6.6367 4.4883 2.6914 5.5508 3.8281 9.0234 6.6602l30.898 31.891c7.5352 8.7383 18.117 26.883 24.285 38.551 7.7227 14.645 21.234 34.676 30.828 47.598 2.3164 3.0938 3.875 5.8359 6.4023 9.2617 2.9766 4.0156 11.434 12.898 15.922 13.582z" fill-rule="evenodd"/>
 <path d="m407.32 579.71c-33.805-0.21094-35.434-5.2422-60.379-18.188-40.156-20.836-100.42-26.598-118.84-41.27-7.3945-5.9062-41.598-31.512-41.527-39.047 1.9141-4.7461 0.99219-2.9766 5.0547-4.1562-5.4336-2.7891-1.7734-2.6445-7.1797-3.2344-6.3086 16.062 18.898 31.039 35.598 45.07 24.52 20.598 81.852 26.836 94.203 32.977 8.9531 4.4648 20.527 7.9609 29.93 12.332 9.9453 4.6289 18.117 9.9219 27.637 14.812 8.9062 4.582 27.285 6.9922 35.504 0.70703z" fill-rule="evenodd"/>
 <path d="m456.95 923.5c1.2266 6.9453 17.195 17.883 22.961 22.891 32.504 28.062 99.164 74.574 135.12 95.598 11.883 6.9453 32.859 18.59 46.301 22.676 5.125 1.5586 13.488 1.582 16.133 5.7891 1.5586-4.2773 3.4727-5.0078 1.1562-7.4648-3.0234-3.1406-1.5117 0.73047-7.5586 1.2266-10.371 0.875-41.031-16.699-49.109-21.285-40.961-23.242-116.43-77.645-150.78-108.16-2.7891-2.457-11.125-9.5664-14.219-11.27z" fill-rule="evenodd"/>
 <path d="m1095.6 576.92c-3.6602-6.707-3.2617-15.875-1.2773-23.691 4.9844 7.7969 2.8594 17.125 1.2773 23.691zm-9.1406 5.3398 3.4258-6.5195c0.14062-0.33203 0.42578-0.89844 0.54297-1.1797 0.14062-0.30859 0.35547-0.82812 0.58984-1.2031 0.26172 8.9297 2.668 14.766 1.6055 23.859-0.82812 7.2539-3.543 13.016-4.418 20.812l5.5742-12.613 3.7305 33.285c2.1953-0.99219 6.1406-18.047 7.1328-21.613 2.0078-7.3008 7.1094-19.371 2.3867-24.164-2.5742 10.277-3.3086 23.859-7.8906 32.668l-2.6445-36.684c4.4883 4.8906 1.3711 11.883 4.0859 17.008 2.4805-3.9453 0.49609-37.676-0.56641-46.039-0.14062-0.99219-1.3008-7.7461-1.3945-7.9844-1.3477-3.9453-0.99219-2.7383-3.9219-4.7734l2.2695-8.6914c-6.9219 0.63672-3.6133 2.668-7.9844 20.574-0.78125 3.2617-3 22.254-2.5273 23.27z" fill-rule="evenodd"/>
 <path d="m361.84 907.02c-10.395-23.93-60.141-34.867-82.254-42.684-26.102-9.2617-26.93-18.543-42.094-42.805l-34.605-50.102c-3.6836-5.0547-5.7383-7.7969-8.9766-13.039-6.1641-9.9688-1.4414-7.0859-3.1641-14.621-0.046875-0.28516-0.30859-0.80469-0.51953-1.1562-0.16406 0.09375-9.1406-0.11719-1.1562 12.781 3.3555 5.4102 5.6445 8.4336 8.8828 13.227l34.938 51.309c7.8438 13.227 14.883 27.402 26.363 38.008 6.8984 6.3789 5.0547 4.3477 14.242 7.582 21.59 7.582 80.148 24.59 88.348 41.504z" fill-rule="evenodd"/>
 <path d="m997.09 960.09c-2.6211-16.324-39.684-118.96-45.426-132.29-10.891-25.254-45.805-105.14-59.387-118.63l28.512 58.559c9.3555 20.363 18.969 40.441 28.086 61.324 8.5742 19.605 17.668 43.82 25.109 64.535l22.465 65.434c0.11719 0.23438 0.40234 0.73047 0.63672 1.0625z" fill-rule="evenodd"/>
 <path d="m1066.1 489.31 4.9375-10.109c4.5117 21.449 11.387 3.2344 8.5742 51.73l-36.613-81.637c-1.582-3.4258-2.9297-8.457-6.0234-9.543-2.9531 3.4727-3.0938-1.4883 3.7578 11.883 10.465 20.434 32.812 63.73 37.82 84.781 1.3242 5.6445 0 13.914 0.58984 21.117 3.7305-13.797 3.6367-40.395 4.1328-55.938l1.0156-14.527c-0.1875-8.9766 1.3008 6.4258-0.26172-2.0312l-0.70703-1.7461c-2.125 4.1094-2.9062 6.6367-3.0234 12.684-0.23438-0.37891-0.54297-1.4414-0.63672-1.1797l-29.293-72.355c-3.2109 2.0781-4.7734-0.89844 1.418 13.441 2.1953 5.0312 4.582 10.371 6.707 15.285 7.8438 18.164 8.7891 14.598 7.6055 38.148z" fill-rule="evenodd"/>
 <path d="m597.88 1077.9c-13.891-5.2422-7.3008-1.1094-26.078-9.9219-36.496-17.148-81.164-45.566-117.05-66.637-9.2344-5.4336-39.543-26.102-46.699-27.758 3.2852 6.2109 14.668 11.836 20.953 15.852 8.1953 5.2422 15.164 8.4805 23.668 13.984 21.875 14.148 95.008 56.434 118.68 66.543 5.7383 2.457 21.758 9.7305 26.527 7.9375z" fill-rule="evenodd"/>
 <path d="m486.61 217.23c-4.6055-6.4492-27.379-27.094-35.41-33.023-12.66-9.332-39.758-35.195-54.141-39.332 2.2422 5.293 5.7383 6.3555 10.277 9.4258l79.277 62.93z" fill-rule="evenodd"/>
 <path d="m327.38 163.28c7.0625-7.2539 43.016 20.48 49.301 24.828 14.363 9.8984 34.371 26.055 47.527 32.812-5.3867-7.5117-33.094-25.254-44.125-34.629-8.0781-6.8984-37.914-27.141-50.148-28.348l-2.5508 5.3398z" fill-rule="evenodd"/>
 <path d="m453.97 135.59c2.3633 5.1016-2.8359 1.0156 11.41 6.1875 9.9922 3.6133 27.285 14.551 35.906 20.621 7.8672 5.5273 14.293 10.418 21.543 16.133 7.3008 5.7383 15.52 14.836 19.914 16.418-7.9375-11.242-26.812-26.195-38.836-35.125-5.5977-4.1562-42-28.086-49.938-24.234z" fill-rule="evenodd"/>
 <path d="m422.08 143.81c7.7969 4.0391 18.309 6.3086 25.699 10.844 7.2773 4.4414 16.254 10.488 22.582 15.07l31.797 23.172c5.3633 3.6836 5.3867 5.3867 9.6602 8.7891-3.9922-11.34-29.812-27.852-40.039-34.914-7.8672-5.4336-14.195-10.324-22.629-15.047l-19.723-8.7383c-11.48-4.0391-6.1641-0.046875-7.3477 0.82812z" fill-rule="evenodd"/>
 <path d="m621.9 189.29c-7.1562-14.34-67.227-54.07-75.59-54.898 2.1016 3.6133 31.418 23.102 37.605 26.953z" fill-rule="evenodd"/>
 <path d="m584.62 189.38c-2.6211-4.7461-11.977-13.086-16.938-18.094-6.1875-6.2617-12.613-10.395-18.922-15.613-7.2266-5.9766-35.668-23.668-45.285-26.668 0.26172 0.44922 0.61328 0.58984 0.78125 1.3008 0.82813 3.4492 15.285 10.324 20.148 13.676 7.418 5.1016 13.629 7.7227 21.047 13.488l39.164 31.914z" fill-rule="evenodd"/>
 <path d="m298.58 171.92 2.0547 1.0859c21.355 6.7812 26.434 9.0703 47.48 23.195l43.062 32.434c-7.2773-8.5039-40.109-35.48-52.086-42.164-4.4648-2.4805-7.2266-4.4883-12.023-6.8047-5.5039-2.6445-23.48-12.473-28.488-7.7461z" fill-rule="evenodd"/>
 <path d="m657.47 193.89-15.262-15.449c-5.1484-5.4336-11.527-8.9531-19.016-13.961-8.2695-5.5039-35.195-22.465-45-20.102 23.836 12.262 49.039 24.566 69.898 42.262 3.8984 3.2852 4.7969 5.7656 9.3789 7.2539z" fill-rule="evenodd"/>
 <path d="m360.09 158.05c3.5195 1.1328 4.6523-0.09375 9.4023 1.0156 4.3477 1.0156 7.1094 3 10.984 4.8438 6.0234 2.8828 15.543 7.1562 20.621 10.723 7.5586 5.3164 33.164 20.766 36.566 24.781-5.9062-9.2617-24.188-20.738-35.195-27.73l-32.125-16.465c-6.9453-2.1484-8.1016-3.5195-10.254 2.8359z" fill-rule="evenodd"/>
 <path d="m258.45 178.91c2.8594 1.1094 4.6523 0.42578 8.1016 1.3945l40.062 21.309c4.9141 3.332 10.441 7.1797 15.805 9.6367-2.8828-5.0781-9.4492-8.2188-14.031-11.41-6.2109-4.3242-9.332-5.7891-15.684-9.4023-8.7383-4.9609-30.355-18.637-34.254-11.527z" fill-rule="evenodd"/>
 <path d="m714.26 189.05c-4.1797-10.156-42.262-41.031-55.82-46.348 2.3867 2.6914 3.6367 2.8359 6.4023 5.1719l41.766 35.242c2.8828 2.4805 4.0391 4.4648 7.6523 5.9297z" fill-rule="evenodd"/>
 <path d="m1094.6 670.8c7.9375-7.6992 18.332-39.094 20.434-54.355 0.96875-7.0156 1.9844-4.3711-1.9141-5.9297-2.9297 9.8281-3.9219 20.27-7.4648 31.203-1.7969 5.5273-3.5195 9.1406-5.4102 14.859-2.0312 6.2344-4.1797 9.4961-5.6445 14.219z" fill-rule="evenodd"/>
 <path d="m686.32 193.75c-6.9453-9.2344-45.969-40.844-56.387-41.645z" fill-rule="evenodd"/>
 <path d="m1102.8 700.2 16.418-38.691c0.56641-2.5273 1.1328-5.8594 1.418-7.9609 1.4648-10.652-0.80469-9-1.1562-9.5898l-16.676 56.242z" fill-rule="evenodd"/>
 <path d="m1064.6 749.36c6.4492-2.4102 6.1875-4.1328 10.82-20.195 1.8203-6.332 5.9766-19.465 5.8828-26.031-3.0703 7.6992-4.8672 13.652-7.8438 22.418l-8.8594 23.812z" fill-rule="evenodd"/>
 <path d="m785.05 191.27c-3.9922-8.5977-10.254-14.645-15.828-20.621-4.582-4.9375-12.234-16.156-17.668-16.676 2.668 2.1953 2.0078 5.5039 16.418 18 6.7305 5.8359 9.4961 13.773 17.078 19.301z" fill-rule="evenodd"/>
 <path d="m138.26 375.5c4.1562-5.7148 1.2539-7.2539 0.37891-13.844-0.99219-7.3242 2.1484-11.691-1.7734-16.512-5.9062 3.3086 0.63672 29.242 1.3945 30.355z" fill-rule="evenodd"/>
 <path d="m294.73 293.79-1.0859 7.9844c4.6289-1.3242 1.3242 0 3.5898-2.5508 1.7461-1.9609-0.046875-1.3945 2.8594-2.8125 5.3633 6.4492-0.44922 9.7812 9.8984 13.844 0.89844-3.4492 2.5742-2.7656-2.6914-7.1562-0.21094-0.16406-0.73047-0.47266-1.0625-0.78125 3.2617-7.5352 0.49609 2.2695 3.0938-4.5586l-14.598-3.9688z" fill-rule="evenodd"/>
 <path d="m720.8 168.92c-3.2852-8.2695-22.277-18.758-30.898-18.52z" fill-rule="evenodd"/>
 <path d="m205.94 405.9c0.875-2.3398-1.6992-10.652-1.6758-17.387-5.7148-0.40234-6.707-1.3008-10.348-2.457 4.4648 10.254 0.070313-7.8672 7.8438 14.691 2.1484 6.2344 2.2188 4.0156 4.1797 5.1484z" fill-rule="evenodd"/>
 <path d="m749.1 168.95c-3-7.2031-14.977-13.441-20.738-18.613-3.3086-3.0234-2.9062-4.2266-8.7656-4.7227 4.6992 4.9141 8.0078 7.6992 13.844 12.211z" fill-rule="evenodd"/>
 <path d="m815.53 204.02c-0.1875-0.16406-10.277-13.746-11.836-16.016-4.9844-7.2773-7.9609-11.148-13.488-16.746 0.99219 5.7383 20.738 30.332 25.324 32.766z" fill-rule="evenodd"/>
 <path d="m325.25 316.44 11.906 4.7227c-4.6758-0.78125-2.8594-0.82812-7.2773-6.2852 0.33203-0.28516 0.94531-0.96875 1.1328-0.61328l2.2695-1.0625c4.0859-2.6914 1.6289 1.9609 2.6445-3.0469l-9.9219-2.3164-0.75781 8.5977z" fill-rule="evenodd"/>
 <path d="m374.67 950.93c-4.2031-6.5898-14.645-14.645-21.047-17.219 1.6289 5.0781 16.254 15.379 21.047 17.219z" fill-rule="evenodd"/>
 <path d="m541.98 916.23-1.5352-1.9609c-0.89844-0.89844-1.6992-1.6289-2.5742-2.3398l-12.684-9.5898c0.54297 7.582 9.4023 12.262 16.797 13.891z" fill-rule="evenodd"/>
 <path d="m1101.6 811.82c-1.0156-3.7578-1.5117-4.6055-3.3789-8.0078-3.1406-5.8125-1.3477-5.1016-5.8828-7.7969-1.1094 5.7656 3.1875 14.008 9.2617 15.805z" fill-rule="evenodd"/>
 <path d="m1107 796.49c-1.1562-1.9609-2.668-4.3477-3.6836-7.4883l-2.6914-10.133c-5.3398 3.3086-3.875 2.5742-0.92187 9.2852 2.5273 5.7656 1.418 6.2344 7.3008 8.3398z" fill-rule="evenodd"/>
 <path d="m313.46 276.47c4.9375-0.11719 8.7656-2.3633 14.836-3.0234 6.9688-0.75781 12.141 0.42578 18.922 0.47266-8.7891-5.125-26.457-2.3633-33.758 2.5508z" fill-rule="evenodd"/>
 <path d="m325.63 285.05c5.8359 1.9609 16.371 2.293 22.582 1.1094l-16.82-3.3086c-9.7305 0.070313-4.3477 0.75781-5.7656 2.1953z" fill-rule="evenodd"/>
 <path d="m199.65 305.53c4.6992-2.3164 2.8359 0.37891 5.0078-6.3555-1.0625-0.44922-0.14062-0.30859-3.4023-1.2773-0.44922-0.14062-3.0469-0.73047-3.8047-0.92188 1.3242 3.9922-0.54297-1.9609 0.63672 3.7578 1.2773 6.2617-0.75781-1.7734 0.51953 2.5273l1.0391 2.2695z" fill-rule="evenodd"/>
 <path d="m342.33 296.24 18.234 4.4883c-9.8281-5.5273-14.598-9.4961-18.234-4.4883z" fill-rule="evenodd"/>
 <path d="m585.47 949.91c-3.2617-3.7812-6.1641-6.707-12.262-7.2266 2.0312 4.8438 5.293 7.3477 12.262 7.2266z" fill-rule="evenodd"/>
 <path d="m267.21 206.5c-3.332-7.7734-14.172-12.566-20.859-15.969z" fill-rule="evenodd"/>
 <path d="m242.03 426.14c2.6445-6.5898 2.7891-9.4258-0.23438-13.797-1.9844 3.9453-2.9531 10.18 0.23438 13.797z" fill-rule="evenodd"/>
 <path d="m824.34 827.91c-2.3633-5.2422-9.1641-10.371-14.316-12.805 2.5273 4.5586 2.0781 3.7578 6.2344 6.9688 3.5898 2.7891 3.9219 3.8281 8.0781 5.8359z" fill-rule="evenodd"/>
 <path d="m318.68 309.8c-0.44922-5.1719-1.5352-9.8047-6.4023-12.117 0.58984 7.8672 1.5117 7.5586 6.4023 12.117z" fill-rule="evenodd"/>
 <path d="m406.84 349.61 12.66 0.046875c-3.5898-3.2344-10.203-6.2109-12.66-0.046875z" fill-rule="evenodd"/>
 <path d="m562.87 933.99c-2.7383-4.4414-8.0781-8.5742-11.766-10.348 1.4648 4.4648-0.16406 2.2422 3.875 5.7148 2.5039 2.1719 4.1094 3.2344 7.8906 4.6289z" fill-rule="evenodd"/>
 <path d="m720.8 168.92c2.6914 5.6914 7.7227 8.5977 11.008 12.449-2.7891-6.6602-4.6289-10.109-11.008-12.449z" fill-rule="evenodd"/>
 <path d="m728.6 845.29c4.7734-0.09375 13.301-1.2539 14.977-5.5039l-11.008 3.1641c-4.5352 1.7227-3.4258 1.9141-3.9688 2.3398z" fill-rule="evenodd"/>
 <path d="m456.95 923.5c-1.9609-4.4414-4.6289-10.016-10.512-7.6055z" fill-rule="evenodd"/>
 <path d="m741.19 881.43c6.0469-0.75781 7.0391-0.44922 8.0312-6.5664-3.1406 1.6289-1.1797 0.63672-3.707 2.7891l-3.4727 3.0469c-0.16406 0.16406-0.58984 0.47266-0.85156 0.73047z" fill-rule="evenodd"/>
 <path d="m400.7 971.29c9.3555 3.2852 4.1797 0.75781 6.0703-0.875-8.9062-3.1641-4.3945-0.70703-6.0703 0.875z" fill-rule="evenodd"/>
 <path d="m621.9 189.29 6.0234 8.3633c-0.37891-2.8594-0.23438-3.3555-1.5117-5.0781-2.8828-3.9688-2.4102-2.3398-4.5117-3.2852z" fill-rule="evenodd"/>
 <path d="m1069.2 600.38 2.3867-5.8594c-3.4023 1.7969-3.4961 3.1875-2.3867 5.8594z" fill-rule="evenodd"/>
 <path d="m813.43 994.32c-2.1719-4.4883 0.80469-3.0469-4.8203-4.6523z" fill-rule="evenodd"/>
 <path d="m750.47 894.07c2.2188 3.707 5.4336 5.8828 9.0469 8.4102z" fill-rule="evenodd"/>
 <path d="m394.65 966.12 4.9609 1.1562c-0.40234-0.63672-1.6055-1.6289-1.8672-1.6758-3.5898-0.82812-1.2539-0.70703-3.0938 0.51953z" fill-rule="evenodd"/>
 <path d="m749.1 168.95c0.94531 1.8438-0.1875 1.1328 1.7734 2.8594 2.1016 1.8438 0.63672 0.58984 3.3555 2.0547l-5.125-4.9141z" fill-rule="evenodd"/>
 <path d="m783.45 1043.1 9.6836 6.0234c-3.4961-2.4336-5.457-4.4648-9.6836-6.0234z" fill-rule="evenodd"/>
 <path d="m625.87 150.09c0.16406 0.75781 3.0703 3.4961 1.3945 0.16406-0.56641-1.1094-1.8203-2.0078-1.3945-0.16406z" fill-rule="evenodd"/>
 <path d="m267.21 206.5 7.5117 8.2188z" fill-rule="evenodd"/>
</svg>
